<svg width="15" height="15" viewBox="0 0 15 15" fill="none" xmlns="http://www.w3.org/2000/svg">
<path d="M0.0580034 7.63706C0.0233715 7.62556 0 7.59317 0 7.55668L0 6.79312C0 6.75663 0.0233716 6.72424 0.0580036 6.71274L2.55526 5.88322C2.61009 5.86501 2.66667 5.90583 2.66667 5.96361V8.38619C2.66667 8.44397 2.61009 8.48479 2.55526 8.46658L0.0580034 7.63706Z" fill="#3F5771"/>
<path d="M14.3419 6.71275C14.3765 6.72425 14.3999 6.75664 14.3999 6.79313V7.55668C14.3999 7.59318 14.3765 7.62557 14.3419 7.63707L11.8446 8.46659C11.7898 8.4848 11.7332 8.44398 11.7332 8.3862V5.96362C11.7332 5.90584 11.7898 5.86501 11.8446 5.88323L14.3419 6.71275Z" fill="#3F5771"/>
<path d="M2.45571 12.8828C2.42401 12.8958 2.38753 12.8886 2.36327 12.8644L1.49068 11.9949C1.46642 11.9707 1.45915 11.9343 1.47227 11.9027L2.74665 8.83315C2.76978 8.77745 2.84229 8.76306 2.88506 8.80568L5.5636 11.4749C5.60637 11.5175 5.59193 11.5898 5.53604 11.6128L2.45571 12.8828Z" fill="#3F5771"/>
<path d="M1.7288 2.42554C1.71573 2.39397 1.723 2.35765 1.74724 2.3335L2.60913 1.47461C2.63337 1.45046 2.6698 1.44321 2.70149 1.45624L5.73848 2.70477C5.79443 2.72778 5.80892 2.80008 5.76612 2.84273L3.12014 5.47949C3.07734 5.52214 3.00478 5.5077 2.9817 5.45194L1.7288 2.42554Z" fill="#3F5771"/>
<path d="M12.8739 11.8597C12.8869 11.8913 12.8797 11.9276 12.8554 11.9518L11.9935 12.8107C11.9693 12.8348 11.9329 12.8421 11.9012 12.829L8.86418 11.5805C8.80823 11.5575 8.79375 11.4852 8.83654 11.4425L11.4825 8.80579C11.5253 8.76314 11.5979 8.77758 11.621 8.83333L12.8739 11.8597Z" fill="#3F5771"/>
<path d="M11.9012 1.45622C11.9329 1.4432 11.9693 1.45045 11.9936 1.4746L12.8555 2.33349C12.8797 2.35764 12.887 2.39395 12.8739 2.42553L11.621 5.45193C11.5979 5.50769 11.5254 5.52212 11.4826 5.47947L8.83659 2.84272C8.79379 2.80007 8.80827 2.72776 8.86423 2.70476L11.9012 1.45622Z" fill="#3F5771"/>
<ellipse cx="7.19992" cy="7.17491" rx="5.67111" ry="5.65134" fill="#3F5771"/>
<ellipse cx="7.20006" cy="7.17491" rx="4.64" ry="4.62383" fill="#E6D6C6"/>
<path d="M10.2933 7.17491C10.2933 8.87467 8.91005 10.2557 7.19995 10.2557C5.48985 10.2557 4.10662 8.87467 4.10662 7.17491C4.10662 5.47515 5.48985 4.09416 7.19995 4.09416C8.91005 4.09416 10.2933 5.47515 10.2933 7.17491Z" stroke="#3F5771" stroke-width="1.03111"/>
<path d="M6.73612 0.0578352C6.74768 0.0232893 6.78002 0 6.81645 0H7.58337C7.6198 0 7.65215 0.0232894 7.6637 0.0578353L8.49592 2.5458C8.51427 2.60066 8.47344 2.65737 8.41559 2.65737H5.98423C5.92638 2.65737 5.88555 2.60066 5.9039 2.5458L6.73612 0.0578352Z" fill="#3F5771"/>
<path d="M7.66378 14.292C7.65223 14.3265 7.61988 14.3498 7.58345 14.3498H6.81653C6.78011 14.3498 6.74776 14.3265 6.7362 14.292L5.90398 11.804C5.88563 11.7491 5.92646 11.6924 5.98431 11.6924H8.41567C8.47353 11.6924 8.51436 11.7491 8.496 11.804L7.66378 14.292Z" fill="#3F5771"/>
</svg>
